<?xml version="1.0" encoding="iso-8859-1"?>
<!-- Generator: Adobe Illustrator 19.0.0, SVG Export Plug-In . SVG Version: 6.00 Build 0)  -->
<svg xmlns="http://www.w3.org/2000/svg" xmlns:xlink="http://www.w3.org/1999/xlink" version="1.1" id="Layer_1" x="0px" y="0px" viewBox="0 0 511.997 511.997" style="enable-background:new 0 0 511.997 511.997;" xml:space="preserve" width="512px" height="512px">
<g>
	<g>
		<path d="M338.671,21.336h2.656c5.891,0,10.672-4.781,10.672-10.672S347.218,0,341.327,0H170.671    c-5.89-0.001-10.672,4.773-10.672,10.664s4.781,10.672,10.672,10.672h2.656c-52.468,29.109-88,85.07-88,149.327    c0,53.852,24.953,101.867,63.906,133.148v208.186h64.093h85.343h64.094V303.81c38.954-31.281,63.907-79.296,63.907-133.147    C426.67,106.406,391.139,50.445,338.671,21.336z M159.999,255.998c0-5.883,4.781-10.664,10.672-10.664    c5.875,0,10.656,4.781,10.656,10.664c0,5.883-4.781,10.664-10.656,10.664C164.78,266.662,159.999,261.881,159.999,255.998z     M277.327,490.652h-42.656V469.34h42.656V490.652z M341.421,490.652h-42.75v-42.656h-11.438c0-5.891-4.781-10.656-10.672-10.656    s-10.672,4.766-10.672,10.656h-20.562c0-5.891-4.766-10.656-10.656-10.656c-5.89,0-10.671,4.766-10.671,10.656h-10.672v42.656    h-42.75V319.998h85.421h85.422V490.652z M319.999,223.998c-5.875,0-10.672-4.789-10.672-10.664    c0-5.883,4.797-10.672,10.672-10.672s10.672,4.789,10.672,10.672C330.671,219.209,325.874,223.998,319.999,223.998z     M333.296,298.482c-0.109,0.062-0.219,0.109-0.312,0.172h-21.016c0-5.875,4.781-10.656,10.672-10.656    C328.452,287.998,333.187,292.686,333.296,298.482z M298.671,181.335c-5.891-0.001-10.672-4.79-10.672-10.672    c0-5.875,4.781-10.664,10.672-10.664c5.875,0,10.656,4.789,10.656,10.664C309.327,176.546,304.546,181.335,298.671,181.335z     M298.671,245.334c5.875,0,10.656,4.781,10.656,10.664c0,5.883-4.781,10.664-10.656,10.664c-5.891,0-10.672-4.781-10.672-10.664    C287.999,250.115,292.78,245.334,298.671,245.334z M290.64,298.654h-21.344c0-5.875,4.797-10.656,10.672-10.656    S290.64,292.779,290.64,298.654z M277.327,223.998c-5.875,0-10.656-4.789-10.656-10.664c0-5.883,4.781-10.672,10.656-10.672    c5.891,0,10.672,4.789,10.672,10.672C287.999,219.209,283.218,223.998,277.327,223.998z M255.999,181.334    c-5.875,0-10.672-4.789-10.672-10.672c0-5.875,4.797-10.664,10.672-10.664s10.672,4.789,10.672,10.664    C266.671,176.545,261.874,181.334,255.999,181.334z M255.999,245.334c5.875,0,10.672,4.781,10.672,10.664    c0,5.883-4.797,10.664-10.672,10.664s-10.672-4.781-10.672-10.664C245.327,250.115,250.124,245.334,255.999,245.334z     M247.968,298.654H226.64c0-5.875,4.781-10.656,10.656-10.656C243.187,287.998,247.968,292.779,247.968,298.654z M234.671,223.998    c-5.89,0-10.671-4.789-10.671-10.664c0-5.883,4.781-10.672,10.671-10.672c5.875,0,10.656,4.789,10.656,10.672    C245.327,219.209,240.546,223.998,234.671,223.998z M213.328,181.334c-5.875,0-10.656-4.789-10.656-10.672    c0-5.875,4.781-10.664,10.656-10.664c5.891,0,10.672,4.789,10.672,10.664C223.999,176.545,219.218,181.334,213.328,181.334z     M213.328,245.334c5.891,0,10.672,4.781,10.672,10.664c0,5.883-4.781,10.664-10.672,10.664c-5.875,0-10.656-4.781-10.656-10.664    C202.672,250.115,207.453,245.334,213.328,245.334z M205.296,298.654h-21.328c0-5.875,4.781-10.656,10.672-10.656    C200.515,287.998,205.296,292.779,205.296,298.654z M191.999,223.998c-5.875,0-10.672-4.789-10.672-10.664    c0-5.883,4.797-10.672,10.672-10.672s10.672,4.789,10.672,10.672C202.671,219.209,197.874,223.998,191.999,223.998z     M341.327,266.662c-5.875,0-10.656-4.781-10.656-10.664c0-5.883,4.781-10.664,10.656-10.664c5.891,0,10.672,4.781,10.672,10.664    C351.999,261.881,347.218,266.662,341.327,266.662z M372.188,264.475c0.75-2.695,1.141-5.539,1.141-8.477    c0-14.758-9.984-27.179-23.578-30.875c1.453-3.648,2.25-7.625,2.25-11.789c0-14.766-10-27.18-23.594-30.875    c1.453-3.656,2.266-7.625,2.266-11.797c0-17.671-14.328-32-32-32c-8.203,0-15.672,3.086-21.344,8.156    c-5.656-5.07-13.125-8.156-21.328-8.156s-15.672,3.086-21.328,8.156c-5.671-5.07-13.14-8.156-21.343-8.156    c-17.672,0-32,14.328-32,32c0,4.172,0.812,8.141,2.266,11.797c-13.597,3.696-23.597,16.11-23.597,30.875    c0,4.164,0.797,8.141,2.25,11.789c-13.593,3.695-23.578,16.117-23.578,30.875c0,2.93,0.391,5.773,1.125,8.477    c-8.765-10.836-15.937-22.782-21.405-35.687c-7.781-18.398-11.719-37.953-11.719-58.125c0-20.164,3.938-39.718,11.719-58.117    c7.516-17.781,18.297-33.75,32.016-47.476c13.718-13.719,29.687-24.492,47.468-32.008c18.406-7.781,37.953-11.727,58.125-11.727    s39.719,3.945,58.125,11.727c17.781,7.516,33.75,18.289,47.469,32.008c13.719,13.726,24.5,29.695,32.015,47.476    c7.781,18.398,11.719,37.953,11.719,58.117c0,20.172-3.938,39.727-11.719,58.125C388.14,241.694,380.969,253.647,372.188,264.475z    " fill="#05617d"/>
	</g>
</g>
<g>
	<g>
		<path d="M255.999,319.998c-29.453,0-53.328,23.875-53.328,53.344c0,29.436,23.875,53.311,53.328,53.311    s53.328-23.875,53.328-53.311C309.327,343.873,285.452,319.998,255.999,319.998z M255.999,405.34    c-13.906,0-25.765-8.938-30.171-21.342h60.343C281.765,396.402,269.905,405.34,255.999,405.34z M225.828,362.654    c4.406-12.406,16.265-21.312,30.171-21.312s25.766,8.906,30.172,21.312H225.828z" fill="#05617d"/>
	</g>
</g>
<g>
</g>
<g>
</g>
<g>
</g>
<g>
</g>
<g>
</g>
<g>
</g>
<g>
</g>
<g>
</g>
<g>
</g>
<g>
</g>
<g>
</g>
<g>
</g>
<g>
</g>
<g>
</g>
<g>
</g>
</svg>
